<mxfile host="65bd71144e" pages="2">
    <diagram name="Page-1" id="LXhIsruKm2uqg0XBaRkz">
        <mxGraphModel dx="1630" dy="1890" grid="1" gridSize="10" guides="1" tooltips="1" connect="1" arrows="1" fold="1" page="1" pageScale="1" pageWidth="850" pageHeight="1100" math="0" shadow="0">
            <root>
                <mxCell id="0"/>
                <mxCell id="1" parent="0"/>
                <mxCell id="uKiy49xHJSryWTfkeQc2-10" value="&lt;div&gt;Pub/Sub&lt;/div&gt;&lt;div&gt;MQTT&lt;/div&gt;" style="sketch=0;points=[[0,0,0],[0.25,0,0],[0.5,0,0],[0.75,0,0],[1,0,0],[0,1,0],[0.25,1,0],[0.5,1,0],[0.75,1,0],[1,1,0],[0,0.25,0],[0,0.5,0],[0,0.75,0],[1,0.25,0],[1,0.5,0],[1,0.75,0]];outlineConnect=0;fontColor=#232F3E;fillColor=#E7157B;strokeColor=#ffffff;dashed=0;verticalLabelPosition=bottom;verticalAlign=top;align=center;html=1;fontSize=12;fontStyle=0;aspect=fixed;shape=mxgraph.aws4.resourceIcon;resIcon=mxgraph.aws4.appsync;" parent="1" vertex="1">
                    <mxGeometry x="440" y="360" width="80" height="80" as="geometry"/>
                </mxCell>
                <mxCell id="uKiy49xHJSryWTfkeQc2-11" value="RDS&lt;div&gt;Postgres, Timescale&lt;/div&gt;" style="sketch=0;points=[[0,0,0],[0.25,0,0],[0.5,0,0],[0.75,0,0],[1,0,0],[0,1,0],[0.25,1,0],[0.5,1,0],[0.75,1,0],[1,1,0],[0,0.25,0],[0,0.5,0],[0,0.75,0],[1,0.25,0],[1,0.5,0],[1,0.75,0]];outlineConnect=0;fontColor=#232F3E;fillColor=#C925D1;strokeColor=#ffffff;dashed=0;verticalLabelPosition=bottom;verticalAlign=top;align=center;html=1;fontSize=12;fontStyle=0;aspect=fixed;shape=mxgraph.aws4.resourceIcon;resIcon=mxgraph.aws4.database;" parent="1" vertex="1">
                    <mxGeometry x="240" y="440" width="80" height="80" as="geometry"/>
                </mxCell>
                <mxCell id="uKiy49xHJSryWTfkeQc2-12" value="&lt;div&gt;GPU Compute&lt;/div&gt;&lt;div&gt;(FastAPI, Python)&lt;/div&gt;" style="sketch=0;points=[[0,0,0],[0.25,0,0],[0.5,0,0],[0.75,0,0],[1,0,0],[0,1,0],[0.25,1,0],[0.5,1,0],[0.75,1,0],[1,1,0],[0,0.25,0],[0,0.5,0],[0,0.75,0],[1,0.25,0],[1,0.5,0],[1,0.75,0]];outlineConnect=0;fontColor=#232F3E;fillColor=#01A88D;strokeColor=#ffffff;dashed=0;verticalLabelPosition=bottom;verticalAlign=top;align=center;html=1;fontSize=12;fontStyle=0;aspect=fixed;shape=mxgraph.aws4.resourceIcon;resIcon=mxgraph.aws4.machine_learning;" parent="1" vertex="1">
                    <mxGeometry x="600" y="520" width="80" height="80" as="geometry"/>
                </mxCell>
                <mxCell id="uKiy49xHJSryWTfkeQc2-13" value="File Storage&lt;div&gt;minio&lt;/div&gt;" style="sketch=0;points=[[0,0,0],[0.25,0,0],[0.5,0,0],[0.75,0,0],[1,0,0],[0,1,0],[0.25,1,0],[0.5,1,0],[0.75,1,0],[1,1,0],[0,0.25,0],[0,0.5,0],[0,0.75,0],[1,0.25,0],[1,0.5,0],[1,0.75,0]];outlineConnect=0;fontColor=#232F3E;fillColor=#7AA116;strokeColor=#ffffff;dashed=0;verticalLabelPosition=bottom;verticalAlign=top;align=center;html=1;fontSize=12;fontStyle=0;aspect=fixed;shape=mxgraph.aws4.resourceIcon;resIcon=mxgraph.aws4.s3;" parent="1" vertex="1">
                    <mxGeometry x="240" y="600" width="80" height="80" as="geometry"/>
                </mxCell>
                <mxCell id="uKiy49xHJSryWTfkeQc2-14" value="&lt;div&gt;Compute&lt;/div&gt;&lt;div&gt;Middleware&lt;/div&gt;&lt;div&gt;(GO or node.js)&lt;/div&gt;" style="sketch=0;points=[[0,0,0],[0.25,0,0],[0.5,0,0],[0.75,0,0],[1,0,0],[0,1,0],[0.25,1,0],[0.5,1,0],[0.75,1,0],[1,1,0],[0,0.25,0],[0,0.5,0],[0,0.75,0],[1,0.25,0],[1,0.5,0],[1,0.75,0]];outlineConnect=0;fontColor=#232F3E;fillColor=#ED7100;strokeColor=#ffffff;dashed=0;verticalLabelPosition=bottom;verticalAlign=top;align=center;html=1;fontSize=12;fontStyle=0;aspect=fixed;shape=mxgraph.aws4.resourceIcon;resIcon=mxgraph.aws4.compute;" parent="1" vertex="1">
                    <mxGeometry x="440" y="520" width="80" height="80" as="geometry"/>
                </mxCell>
                <mxCell id="uKiy49xHJSryWTfkeQc2-38" style="edgeStyle=orthogonalEdgeStyle;rounded=0;orthogonalLoop=1;jettySize=auto;html=1;" parent="1" source="uKiy49xHJSryWTfkeQc2-16" target="uKiy49xHJSryWTfkeQc2-14" edge="1">
                    <mxGeometry relative="1" as="geometry"/>
                </mxCell>
                <mxCell id="uKiy49xHJSryWTfkeQc2-16" value="API Gateway" style="sketch=0;points=[[0,0,0],[0.25,0,0],[0.5,0,0],[0.75,0,0],[1,0,0],[0,1,0],[0.25,1,0],[0.5,1,0],[0.75,1,0],[1,1,0],[0,0.25,0],[0,0.5,0],[0,0.75,0],[1,0.25,0],[1,0.5,0],[1,0.75,0]];outlineConnect=0;fontColor=#232F3E;fillColor=#8C4FFF;strokeColor=#ffffff;dashed=0;verticalLabelPosition=bottom;verticalAlign=top;align=center;html=1;fontSize=12;fontStyle=0;aspect=fixed;shape=mxgraph.aws4.resourceIcon;resIcon=mxgraph.aws4.api_gateway;" parent="1" vertex="1">
                    <mxGeometry x="440" y="680" width="80" height="80" as="geometry"/>
                </mxCell>
                <mxCell id="uKiy49xHJSryWTfkeQc2-17" style="edgeStyle=orthogonalEdgeStyle;rounded=0;orthogonalLoop=1;jettySize=auto;html=1;exitX=1;exitY=0.25;exitDx=0;exitDy=0;exitPerimeter=0;entryX=0;entryY=0.25;entryDx=0;entryDy=0;entryPerimeter=0;" parent="1" source="uKiy49xHJSryWTfkeQc2-14" target="uKiy49xHJSryWTfkeQc2-12" edge="1">
                    <mxGeometry relative="1" as="geometry"/>
                </mxCell>
                <mxCell id="uKiy49xHJSryWTfkeQc2-18" style="edgeStyle=orthogonalEdgeStyle;rounded=0;orthogonalLoop=1;jettySize=auto;html=1;exitX=0;exitY=0.75;exitDx=0;exitDy=0;exitPerimeter=0;entryX=1;entryY=0.75;entryDx=0;entryDy=0;entryPerimeter=0;" parent="1" source="uKiy49xHJSryWTfkeQc2-12" target="uKiy49xHJSryWTfkeQc2-14" edge="1">
                    <mxGeometry relative="1" as="geometry"/>
                </mxCell>
                <mxCell id="uKiy49xHJSryWTfkeQc2-20" style="edgeStyle=orthogonalEdgeStyle;rounded=0;orthogonalLoop=1;jettySize=auto;html=1;entryX=0;entryY=0.25;entryDx=0;entryDy=0;entryPerimeter=0;" parent="1" source="uKiy49xHJSryWTfkeQc2-11" target="uKiy49xHJSryWTfkeQc2-14" edge="1">
                    <mxGeometry relative="1" as="geometry"/>
                </mxCell>
                <mxCell id="uKiy49xHJSryWTfkeQc2-21" style="edgeStyle=orthogonalEdgeStyle;rounded=0;orthogonalLoop=1;jettySize=auto;html=1;entryX=0;entryY=0.75;entryDx=0;entryDy=0;entryPerimeter=0;" parent="1" source="uKiy49xHJSryWTfkeQc2-13" target="uKiy49xHJSryWTfkeQc2-14" edge="1">
                    <mxGeometry relative="1" as="geometry"/>
                </mxCell>
                <mxCell id="uKiy49xHJSryWTfkeQc2-22" style="edgeStyle=orthogonalEdgeStyle;rounded=0;orthogonalLoop=1;jettySize=auto;html=1;entryX=0.5;entryY=0;entryDx=0;entryDy=0;entryPerimeter=0;" parent="1" source="uKiy49xHJSryWTfkeQc2-10" target="uKiy49xHJSryWTfkeQc2-14" edge="1">
                    <mxGeometry relative="1" as="geometry"/>
                </mxCell>
                <mxCell id="uKiy49xHJSryWTfkeQc2-23" value="&lt;div&gt;Node&lt;/div&gt;&lt;div&gt;Cell Counter&lt;/div&gt;&lt;div&gt;(Docker, GO)&lt;/div&gt;&lt;div&gt;&lt;br&gt;&lt;/div&gt;&lt;div&gt;&lt;br&gt;&lt;/div&gt;" style="sketch=0;points=[[0,0,0],[0.25,0,0],[0.5,0,0],[0.75,0,0],[1,0,0],[0,1,0],[0.25,1,0],[0.5,1,0],[0.75,1,0],[1,1,0],[0,0.25,0],[0,0.5,0],[0,0.75,0],[1,0.25,0],[1,0.5,0],[1,0.75,0]];outlineConnect=0;fontColor=#232F3E;fillColor=#ED7100;strokeColor=#ffffff;dashed=0;verticalLabelPosition=bottom;verticalAlign=top;align=center;html=1;fontSize=12;fontStyle=0;aspect=fixed;shape=mxgraph.aws4.resourceIcon;resIcon=mxgraph.aws4.compute;" parent="1" vertex="1">
                    <mxGeometry x="280" y="80" width="80" height="80" as="geometry"/>
                </mxCell>
                <mxCell id="uKiy49xHJSryWTfkeQc2-52" style="edgeStyle=orthogonalEdgeStyle;rounded=0;orthogonalLoop=1;jettySize=auto;html=1;" parent="1" source="uKiy49xHJSryWTfkeQc2-24" target="uKiy49xHJSryWTfkeQc2-49" edge="1">
                    <mxGeometry relative="1" as="geometry"/>
                </mxCell>
                <mxCell id="uKiy49xHJSryWTfkeQc2-24" value="&lt;div&gt;Node&lt;/div&gt;&lt;div&gt;Cell Counter&lt;/div&gt;&lt;div&gt;(Docker, GO)&lt;/div&gt;" style="sketch=0;points=[[0,0,0],[0.25,0,0],[0.5,0,0],[0.75,0,0],[1,0,0],[0,1,0],[0.25,1,0],[0.5,1,0],[0.75,1,0],[1,1,0],[0,0.25,0],[0,0.5,0],[0,0.75,0],[1,0.25,0],[1,0.5,0],[1,0.75,0]];outlineConnect=0;fontColor=#232F3E;fillColor=#ED7100;strokeColor=#ffffff;dashed=0;verticalLabelPosition=bottom;verticalAlign=top;align=center;html=1;fontSize=12;fontStyle=0;aspect=fixed;shape=mxgraph.aws4.resourceIcon;resIcon=mxgraph.aws4.compute;" parent="1" vertex="1">
                    <mxGeometry x="440" y="80" width="80" height="80" as="geometry"/>
                </mxCell>
                <mxCell id="uKiy49xHJSryWTfkeQc2-25" value="&lt;div&gt;Node&lt;/div&gt;&lt;div&gt;Cell Counter&lt;/div&gt;&lt;div&gt;(Docker, GO)&lt;/div&gt;" style="sketch=0;points=[[0,0,0],[0.25,0,0],[0.5,0,0],[0.75,0,0],[1,0,0],[0,1,0],[0.25,1,0],[0.5,1,0],[0.75,1,0],[1,1,0],[0,0.25,0],[0,0.5,0],[0,0.75,0],[1,0.25,0],[1,0.5,0],[1,0.75,0]];outlineConnect=0;fontColor=#232F3E;fillColor=#ED7100;strokeColor=#ffffff;dashed=0;verticalLabelPosition=bottom;verticalAlign=top;align=center;html=1;fontSize=12;fontStyle=0;aspect=fixed;shape=mxgraph.aws4.resourceIcon;resIcon=mxgraph.aws4.compute;" parent="1" vertex="1">
                    <mxGeometry x="600" y="80" width="80" height="80" as="geometry"/>
                </mxCell>
                <mxCell id="uKiy49xHJSryWTfkeQc2-29" style="edgeStyle=orthogonalEdgeStyle;rounded=0;orthogonalLoop=1;jettySize=auto;html=1;entryX=0.5;entryY=0;entryDx=0;entryDy=0;entryPerimeter=0;" parent="1" source="uKiy49xHJSryWTfkeQc2-24" target="uKiy49xHJSryWTfkeQc2-10" edge="1">
                    <mxGeometry relative="1" as="geometry"/>
                </mxCell>
                <mxCell id="uKiy49xHJSryWTfkeQc2-32" style="edgeStyle=orthogonalEdgeStyle;rounded=0;orthogonalLoop=1;jettySize=auto;html=1;entryX=0.25;entryY=0;entryDx=0;entryDy=0;entryPerimeter=0;" parent="1" source="uKiy49xHJSryWTfkeQc2-23" target="uKiy49xHJSryWTfkeQc2-10" edge="1">
                    <mxGeometry relative="1" as="geometry">
                        <Array as="points">
                            <mxPoint x="320" y="240"/>
                            <mxPoint x="460" y="240"/>
                        </Array>
                    </mxGeometry>
                </mxCell>
                <mxCell id="uKiy49xHJSryWTfkeQc2-33" style="edgeStyle=orthogonalEdgeStyle;rounded=0;orthogonalLoop=1;jettySize=auto;html=1;entryX=0.75;entryY=0;entryDx=0;entryDy=0;entryPerimeter=0;" parent="1" source="uKiy49xHJSryWTfkeQc2-25" target="uKiy49xHJSryWTfkeQc2-10" edge="1">
                    <mxGeometry relative="1" as="geometry">
                        <Array as="points">
                            <mxPoint x="640" y="240"/>
                            <mxPoint x="500" y="240"/>
                        </Array>
                    </mxGeometry>
                </mxCell>
                <mxCell id="uKiy49xHJSryWTfkeQc2-35" value="&lt;div&gt;Compute&lt;/div&gt;&lt;div&gt;Frontend&lt;/div&gt;&lt;div&gt;(node.js)&lt;/div&gt;" style="sketch=0;points=[[0,0,0],[0.25,0,0],[0.5,0,0],[0.75,0,0],[1,0,0],[0,1,0],[0.25,1,0],[0.5,1,0],[0.75,1,0],[1,1,0],[0,0.25,0],[0,0.5,0],[0,0.75,0],[1,0.25,0],[1,0.5,0],[1,0.75,0]];outlineConnect=0;fontColor=#232F3E;fillColor=#ED7100;strokeColor=#ffffff;dashed=0;verticalLabelPosition=bottom;verticalAlign=top;align=center;html=1;fontSize=12;fontStyle=0;aspect=fixed;shape=mxgraph.aws4.resourceIcon;resIcon=mxgraph.aws4.compute;" parent="1" vertex="1">
                    <mxGeometry x="440" y="840" width="80" height="80" as="geometry"/>
                </mxCell>
                <mxCell id="uKiy49xHJSryWTfkeQc2-37" style="edgeStyle=orthogonalEdgeStyle;rounded=0;orthogonalLoop=1;jettySize=auto;html=1;entryX=0.5;entryY=1;entryDx=0;entryDy=0;entryPerimeter=0;" parent="1" source="uKiy49xHJSryWTfkeQc2-35" target="uKiy49xHJSryWTfkeQc2-16" edge="1">
                    <mxGeometry relative="1" as="geometry"/>
                </mxCell>
                <mxCell id="uKiy49xHJSryWTfkeQc2-43" value="User" style="sketch=0;points=[[0,0,0],[0.25,0,0],[0.5,0,0],[0.75,0,0],[1,0,0],[0,1,0],[0.25,1,0],[0.5,1,0],[0.75,1,0],[1,1,0],[0,0.25,0],[0,0.5,0],[0,0.75,0],[1,0.25,0],[1,0.5,0],[1,0.75,0]];outlineConnect=0;fontColor=#232F3E;fillColor=#C925D1;strokeColor=#ffffff;dashed=0;verticalLabelPosition=bottom;verticalAlign=top;align=center;html=1;fontSize=12;fontStyle=0;aspect=fixed;shape=mxgraph.aws4.resourceIcon;resIcon=mxgraph.aws4.customer_enablement;" parent="1" vertex="1">
                    <mxGeometry x="760" y="840" width="80" height="80" as="geometry"/>
                </mxCell>
                <mxCell id="uKiy49xHJSryWTfkeQc2-44" style="edgeStyle=orthogonalEdgeStyle;rounded=0;orthogonalLoop=1;jettySize=auto;html=1;entryX=1;entryY=0.5;entryDx=0;entryDy=0;entryPerimeter=0;" parent="1" source="uKiy49xHJSryWTfkeQc2-43" target="uKiy49xHJSryWTfkeQc2-35" edge="1">
                    <mxGeometry relative="1" as="geometry"/>
                </mxCell>
                <mxCell id="uKiy49xHJSryWTfkeQc2-48" value="Central Server Unit" style="points=[[0,0],[0.25,0],[0.5,0],[0.75,0],[1,0],[1,0.25],[1,0.5],[1,0.75],[1,1],[0.75,1],[0.5,1],[0.25,1],[0,1],[0,0.75],[0,0.5],[0,0.25]];outlineConnect=0;gradientColor=none;html=1;whiteSpace=wrap;fontSize=12;fontStyle=0;container=1;pointerEvents=0;collapsible=0;recursiveResize=0;shape=mxgraph.aws4.group;grIcon=mxgraph.aws4.group_aws_cloud;strokeColor=#232F3E;fillColor=none;verticalAlign=top;align=left;spacingLeft=30;fontColor=#232F3E;dashed=0;" parent="1" vertex="1">
                    <mxGeometry x="200" y="320" width="520" height="660" as="geometry"/>
                </mxCell>
                <mxCell id="uKiy49xHJSryWTfkeQc2-49" value="License Server" style="sketch=0;points=[[0,0,0],[0.25,0,0],[0.5,0,0],[0.75,0,0],[1,0,0],[0,1,0],[0.25,1,0],[0.5,1,0],[0.75,1,0],[1,1,0],[0,0.25,0],[0,0.5,0],[0,0.75,0],[1,0.25,0],[1,0.5,0],[1,0.75,0]];outlineConnect=0;fontColor=#232F3E;fillColor=#ED7100;strokeColor=#ffffff;dashed=0;verticalLabelPosition=bottom;verticalAlign=top;align=center;html=1;fontSize=12;fontStyle=0;aspect=fixed;shape=mxgraph.aws4.resourceIcon;resIcon=mxgraph.aws4.outposts_family;" parent="1" vertex="1">
                    <mxGeometry x="440" y="-200" width="80" height="80" as="geometry"/>
                </mxCell>
                <mxCell id="uKiy49xHJSryWTfkeQc2-50" style="edgeStyle=orthogonalEdgeStyle;rounded=0;orthogonalLoop=1;jettySize=auto;html=1;entryX=0;entryY=0.75;entryDx=0;entryDy=0;entryPerimeter=0;" parent="1" source="uKiy49xHJSryWTfkeQc2-23" target="uKiy49xHJSryWTfkeQc2-49" edge="1">
                    <mxGeometry relative="1" as="geometry"/>
                </mxCell>
                <mxCell id="uKiy49xHJSryWTfkeQc2-51" style="edgeStyle=orthogonalEdgeStyle;rounded=0;orthogonalLoop=1;jettySize=auto;html=1;entryX=1;entryY=0.75;entryDx=0;entryDy=0;entryPerimeter=0;" parent="1" source="uKiy49xHJSryWTfkeQc2-25" target="uKiy49xHJSryWTfkeQc2-49" edge="1">
                    <mxGeometry relative="1" as="geometry"/>
                </mxCell>
                <mxCell id="DJt_CD_7adKYVdYQz_FR-1" value="&lt;div&gt;The license server is reached in two scenarios:&lt;/div&gt;&lt;div&gt;&lt;br&gt;&lt;/div&gt;&lt;div&gt;1: When the Node is first initialized. It will first validate of a license is available.&lt;/div&gt;&lt;div&gt;&lt;br&gt;&lt;/div&gt;&lt;div&gt;2: Every day at a set time (default to 12:00 AM) checks for firmware updates&lt;/div&gt;&lt;div&gt;&lt;br&gt;&lt;/div&gt;&lt;div&gt;&lt;br&gt;&lt;/div&gt;" style="text;html=1;align=left;verticalAlign=middle;whiteSpace=wrap;rounded=0;" parent="1" vertex="1">
                    <mxGeometry x="580" y="-110" width="240" height="180" as="geometry"/>
                </mxCell>
                <mxCell id="DJt_CD_7adKYVdYQz_FR-2" value="&lt;div&gt;The node communicates with the pub/sub in the following scenarios:&lt;/div&gt;&lt;div&gt;&lt;br&gt;&lt;/div&gt;&lt;div&gt;1: When a node finds a firmware update&lt;/div&gt;&lt;div&gt;&lt;br&gt;&lt;/div&gt;&lt;div&gt;2: Heartbeat every 30 seconds to indicate life. Gives uptime, version ect.&lt;/div&gt;&lt;div&gt;&lt;br&gt;&lt;/div&gt;&lt;div&gt;3: When data is produced&lt;/div&gt;&lt;div&gt;&lt;br&gt;&lt;/div&gt;&lt;div&gt;4: When node is updating/finished updating&lt;/div&gt;&lt;div&gt;&lt;br&gt;&lt;/div&gt;&lt;div&gt;5: When an error occurs&lt;/div&gt;&lt;div&gt;&lt;br&gt;&lt;/div&gt;&lt;div&gt;6: When a new node connects to the network&lt;/div&gt;" style="text;html=1;align=left;verticalAlign=middle;whiteSpace=wrap;rounded=0;" parent="1" vertex="1">
                    <mxGeometry x="740" y="130" width="420" height="230" as="geometry"/>
                </mxCell>
            </root>
        </mxGraphModel>
    </diagram>
    <diagram id="QXjKQn-UZoF8NWdACQz7" name="Page-2">
        <mxGraphModel grid="1" page="1" gridSize="10" guides="1" tooltips="1" connect="1" arrows="1" fold="1" pageScale="1" pageWidth="850" pageHeight="1100" math="0" shadow="0">
            <root>
                <mxCell id="0"/>
                <mxCell id="1" parent="0"/>
            </root>
        </mxGraphModel>
    </diagram>
</mxfile>